# xmcd
#
# Track frame offsets: 
#        150
#        16800
#        41197
#        58700
#        78605
#        97570
#
# Disc length: 1503 seconds
#
# Revision: 0
# Processed by: cddbd v1.5.2PL0 Copyright (c) Steve Scherf et al.
# Submitted via: ExactAudioCopy v0.99pb4
#
DISCID=3e05dd06
DTITLE=Steve Pepper - The Information Age
DYEAR=1999
DGENRE=Alt. Rock
TTITLE0=The Hardest Part
TTITLE1=The Lady Jesus
TTITLE2=Blind
TTITLE3=Only Human
TTITLE4=Travelin' On
TTITLE5=The Information Age
EXTD=
EXTT0=
EXTT1=
EXTT2=
EXTT3=
EXTT4=
EXTT5=
PLAYORDER=
